<?xml version="1.0" encoding="iso-8859-1"?>
<!-- Uploaded to: SVG Repo, www.svgrepo.com, Generator: SVG Repo Mixer Tools -->
<svg version="1.1" id="Layer_1" xmlns="http://www.w3.org/2000/svg" xmlns:xlink="http://www.w3.org/1999/xlink" 
	 viewBox="0 0 512 512" xml:space="preserve">
<rect x="169.772" y="433.843" style="fill:#7E8488;" width="172.449" height="32.335"/>
<rect x="169.772" y="396.118" style="fill:#AFB6BB;" width="172.449" height="37.725"/>
<g>
	<path style="fill:#FFD311;" d="M56.601,326.059v177.843h398.799V326.059H56.601z M342.228,466.178H169.774v-32.335v-37.725h172.454
		v37.725V466.178z"/>
	<rect x="56.598" y="8.098" style="fill:#FFD311;" width="398.796" height="43.113"/>
</g>
<path style="fill:#E7ECED;" d="M256.001,132.049c17.892,0,32.335,14.443,32.335,32.335c0,6.143-1.724,11.964-4.742,16.814
	c-5.605,9.377-15.845,15.521-27.593,15.521c-11.748,0-21.988-6.143-27.593-15.521c-3.018-4.85-4.742-10.671-4.742-16.814
	C223.666,146.492,238.109,132.049,256.001,132.049z"/>
<path style="fill:#00B4D7;" d="M283.593,181.198c3.018-4.85,4.742-10.671,4.742-16.814c0-17.893-14.443-32.335-32.335-32.335
	c-17.893,0-32.335,14.443-32.335,32.335c0,6.143,1.724,11.964,4.742,16.814c5.605,9.377,15.845,15.521,27.593,15.521
	C267.749,196.718,277.988,190.575,283.593,181.198z M455.401,51.211v274.848H56.601V51.211H455.401z"/>
<path style="fill:#00A4D4;" d="M138.599,51.211H56.601v274.848h264.751C219.64,273.562,148.011,171.233,138.599,51.211z"/>
<path d="M180.55,0v16.195h266.753v26.918H64.698V16.195h94.295V0H48.503v512h250.613v-16.195H64.698V366.492h223.637v-16.195H64.698
	v-16.139h382.604v161.648h-126.63V512h142.825V0H180.55z M64.698,317.962V59.309h382.604v258.654H64.698V317.962z"/>
<rect x="304.507" y="350.296" style="fill:#FFFFFF;" width="26.946" height="16.195"/>
<rect x="347.619" y="350.296" width="26.946" height="16.195"/>
<rect x="390.731" y="350.296" style="fill:#FFFFFF;" width="26.946" height="16.195"/>
<path d="M161.676,474.277h188.65v-86.256h-188.65V474.277z M177.872,458.081v-16.14H334.13v16.139H177.872V458.081z
	 M334.129,404.216v21.529H177.872v-21.529H334.129z"/>
<rect x="369.17" y="388.021" width="59.281" height="16.195"/>
<rect x="369.17" y="420.358" style="fill:#FFFFFF;" width="26.946" height="16.195"/>
<rect x="401.507" y="420.358" width="26.946" height="16.195"/>
<rect x="369.17" y="452.695" width="26.946" height="16.195"/>
<rect x="401.507" y="452.695" style="fill:#FFFFFF;" width="26.946" height="16.195"/>
<rect x="83.547" y="388.021" width="59.282" height="16.195"/>
<rect x="83.547" y="420.358" width="26.946" height="16.195"/>
<g>
	<rect x="115.884" y="420.358" style="fill:#FFFFFF;" width="26.946" height="16.195"/>
	<rect x="83.547" y="452.695" style="fill:#FFFFFF;" width="26.946" height="16.195"/>
</g>
<rect x="115.884" y="452.695" width="26.946" height="16.195"/>
<path d="M296.433,164.384c0-19.523-13.908-35.856-32.335-39.617V78.157h-16.195v46.609c-18.427,3.761-32.335,20.094-32.335,39.617
	c0,5.28,1.035,10.437,2.989,15.215l-33.288,33.288l48.839,48.839l11.451-11.452l-37.388-37.387l19.55-19.55
	c7.397,7.307,17.425,11.479,28.278,11.479c10.854,0,20.882-4.173,28.278-11.479l19.55,19.55l-37.386,37.387l11.452,11.452
	l48.838-48.839l-33.288-33.289C295.397,174.821,296.433,169.664,296.433,164.384z M276.642,177.044
	c-4.333,7.249-12.049,11.578-20.642,11.578c-8.592,0-16.308-4.329-20.642-11.579l-0.076-0.123c-2.303-3.701-3.52-8.035-3.52-12.535
	c0-13.364,10.873-24.237,24.237-24.237s24.237,10.873,24.237,24.237c0,4.501-1.217,8.836-3.52,12.535L276.642,177.044z"/>
<rect x="245.221" y="156.286" width="21.556" height="16.195"/>
<polygon points="86.227,158.995 102.423,158.995 102.423,97.032 137.438,97.032 137.438,80.837 86.227,80.837 "/>
<g>
	<rect x="86.225" y="175.159" style="fill:#FFFFFF;" width="16.195" height="26.946"/>
	<rect x="390.731" y="80.837" style="fill:#FFFFFF;" width="37.723" height="16.195"/>
</g>
</svg>