<?xml version="1.0" encoding="iso-8859-1"?>
<!-- Uploaded to: SVG Repo, www.svgrepo.com, Generator: SVG Repo Mixer Tools -->
<svg height="800px" width="800px" version="1.1" id="Layer_1" xmlns="http://www.w3.org/2000/svg" xmlns:xlink="http://www.w3.org/1999/xlink" 
	 viewBox="0 0 512 512" xml:space="preserve">
<path style="fill:#CFCDD6;" d="M386.655,0c-8.892,0-16.101,7.209-16.101,16.101H141.445C141.445,7.209,134.236,0,125.344,0
	s-16.101,7.209-16.101,16.101v479.798c0,8.892,7.209,16.101,16.101,16.101h261.31c8.892,0,16.101-7.209,16.101-16.101V16.101
	C402.756,7.209,395.547,0,386.655,0z"/>
<path style="fill:#DEE1E7;" d="M255.999,16.101H141.445C141.445,7.209,134.236,0,125.344,0s-16.101,7.209-16.101,16.101v479.798
	c0,8.892,7.209,16.101,16.101,16.101h130.661L255.999,16.101z"/>
<path style="fill:#BC2A46;" d="M109.243,302.155v193.744c0,8.892,7.209,16.101,16.101,16.101h261.31
	c8.892,0,16.101-7.209,16.101-16.101V302.155H109.243z"/>
<g>
	<path style="fill:#0E4151;" d="M295.416,275.297c-8.892,0-16.101-7.209-16.101-16.101v-20.93c0-8.892,7.209-16.101,16.101-16.101
		s16.101,7.209,16.101,16.101v20.93C311.517,268.088,304.309,275.297,295.416,275.297z"/>
	<path style="fill:#0E4151;" d="M337.729,275.297c-8.892,0-16.101-7.209-16.101-16.101v-20.93c0-8.892,7.209-16.101,16.101-16.101
		s16.101,7.209,16.101,16.101v20.93C353.83,268.088,346.621,275.297,337.729,275.297z"/>
</g>
<path style="fill:#F79D1E;" d="M255.999,146.305c-8.892,0-16.101-7.209-16.101-16.101V71.757c0-8.892,7.209-16.101,16.101-16.101
	c8.892,0,16.101,7.209,16.101,16.101v58.447C272.1,139.096,264.892,146.305,255.999,146.305z"/>
<path style="fill:#FBB03B;" d="M255.999,146.305c-8.892,0-16.101-7.209-16.101-16.101V71.757c0-8.892,7.209-16.101,16.101-16.101
	V146.305z"/>
<path style="fill:#0E4151;" d="M276.216,191.926c-1.168,0-2.354-0.128-3.541-0.394c-8.676-1.947-14.131-10.56-12.183-19.236
	l2.062-9.185l-6.553-5.118l-6.553,5.118l2.062,9.185c1.947,8.676-3.507,17.288-12.183,19.236
	c-8.674,1.947-17.288-3.507-19.236-12.184l-4.294-19.128c-1.363-6.072,0.895-12.386,5.801-16.216l24.496-19.128
	c5.824-4.547,13.995-4.547,19.819,0l24.496,19.128c4.905,3.83,7.164,10.144,5.801,16.216l-4.294,19.128
	C290.23,186.837,283.583,191.926,276.216,191.926z"/>
<path style="fill:#144F66;" d="M255.999,157.993l-6.553,5.118l2.062,9.185c1.947,8.676-3.507,17.288-12.183,19.236
	c-8.674,1.947-17.288-3.507-19.236-12.184l-4.294-19.128c-1.363-6.072,0.895-12.386,5.801-16.216l24.496-19.128
	c2.912-2.273,6.41-3.41,9.91-3.41L255.999,157.993z"/>
<path style="fill:#D62D46;" d="M109.243,302.155v193.744c0,8.892,7.209,16.101,16.101,16.101h130.661V302.155H109.243z"/>
<circle style="fill:#0E4151;" cx="325.101" cy="363.733" r="15.303"/>
<path style="fill:#F79D1E;" d="M284.546,379.835H171.594c-8.892,0-16.101-7.209-16.101-16.101s7.209-16.101,16.101-16.101h112.952
	c8.892,0,16.101,7.209,16.101,16.101S293.438,379.835,284.546,379.835z"/>
<path style="fill:#FBB03B;" d="M256.005,379.835h-84.411c-8.892,0-16.101-7.209-16.101-16.101s7.209-16.101,16.101-16.101h84.406
	L256.005,379.835z"/>
<path style="fill:#0E4151;" d="M407.306,252.348H104.694c-8.892,0-16.101,7.209-16.101,16.101v44.591
	c0,8.892,7.209,16.101,16.101,16.101h302.613c8.892,0,16.101-7.209,16.101-16.101v-44.591
	C423.407,259.557,416.198,252.348,407.306,252.348z"/>
<path style="fill:#144F66;" d="M256.005,252.348H104.694c-8.892,0-16.101,7.209-16.101,16.101v44.591
	c0,8.892,7.209,16.101,16.101,16.101h151.306L256.005,252.348z"/>
<path style="fill:#0E4151;" d="M402.756,16.101C402.756,7.209,395.547,0,386.655,0s-16.101,7.209-16.101,16.101H141.445
	C141.445,7.209,134.236,0,125.344,0s-16.101,7.209-16.101,16.101V77.01h293.512V16.101H402.756z"/>
<path style="fill:#BC2A46;" d="M407.306,32.202H104.694c-8.892,0-16.101-7.209-16.101-16.101S95.802,0,104.694,0h302.613
	c8.892,0,16.101,7.209,16.101,16.101S416.198,32.202,407.306,32.202z"/>
<path style="fill:#144F66;" d="M255.999,16.101H141.445C141.445,7.209,134.236,0,125.344,0s-16.101,7.209-16.101,16.101V77.01
	h146.761L255.999,16.101z"/>
<path style="fill:#D62D46;" d="M255.999,32.202H104.694c-8.892,0-16.101-7.209-16.101-16.101S95.802,0,104.694,0h151.306V32.202z"/>
</svg>