<?xml version="1.0" encoding="iso-8859-1"?>
<!-- Uploaded to: SVG Repo, www.svgrepo.com, Generator: SVG Repo Mixer Tools -->
<svg height="800px" width="800px" version="1.1" id="Layer_1" xmlns="http://www.w3.org/2000/svg" xmlns:xlink="http://www.w3.org/1999/xlink" 
	 viewBox="0 0 512.853 512.853" xml:space="preserve">
<g transform="translate(1 1)">
	<g>
		<polygon style="fill:#FDCC00;" points="33.133,502.893 84.333,502.893 84.333,434.627 33.133,434.627 		"/>
		<polygon style="fill:#FDCC00;" points="425.667,502.893 476.867,502.893 476.867,434.627 425.667,434.627 		"/>
		<polygon style="fill:#FDCC00;" points="41.667,281.027 92.867,281.027 92.867,59.16 41.667,59.16 		"/>
		<polygon style="fill:#FDCC00;" points="417.133,281.027 468.333,281.027 468.333,59.16 417.133,59.16 		"/>
		<polygon style="fill:#FDCC00;" points="237.933,93.293 272.067,93.293 272.067,59.16 237.933,59.16 		"/>
		<polygon style="fill:#FDCC00;" points="237.933,281.027 272.067,281.027 272.067,246.893 237.933,246.893 		"/>
	</g>
	<g>
		<path style="fill:#FFE100;" d="M490.52,434.627H19.48c-6.827,0-11.947-5.12-11.947-11.947v-79.36
			c0-5.973,5.12-11.093,11.947-11.093h471.893c6.827,0,11.947,5.12,11.947,11.947v79.36
			C502.467,429.507,497.347,434.627,490.52,434.627"/>
		<path style="fill:#FFE100;" d="M485.4,332.227H24.6v-38.4c0-6.827,5.973-12.8,12.8-12.8h435.2c6.827,0,12.8,5.973,12.8,12.8
			V332.227z"/>
		<polygon style="fill:#FFE100;" points="7.533,59.16 502.467,59.16 502.467,7.96 7.533,7.96 		"/>
	</g>
	<g>
		<polygon style="fill:#FFA800;" points="459.8,502.893 476.867,502.893 476.867,434.627 459.8,434.627 		"/>
		<polygon style="fill:#FFA800;" points="451.267,281.027 468.333,281.027 468.333,59.16 451.267,59.16 		"/>
		<path style="fill:#FFA800;" d="M490.52,332.227h-17.067c6.827,0,11.947,5.12,11.947,11.947v79.36
			c0,6.827-5.12,11.947-11.947,11.947h17.067c6.827,0,11.947-5.12,11.947-11.947v-79.36
			C502.467,337.347,497.347,332.227,490.52,332.227"/>
		<path style="fill:#FFA800;" d="M472.6,281.027h-17.067c6.827,0,12.8,5.973,12.8,12.8v38.4H485.4v-38.4
			C485.4,287,479.427,281.027,472.6,281.027"/>
		<polygon style="fill:#FFA800;" points="485.4,59.16 502.467,59.16 502.467,7.96 485.4,7.96 		"/>
	</g>
	<g>
		<polygon style="fill:#FFFFFF;" points="33.133,502.893 50.2,502.893 50.2,434.627 33.133,434.627 		"/>
		<polygon style="fill:#FFFFFF;" points="41.667,281.027 58.733,281.027 58.733,59.16 41.667,59.16 		"/>
		<path style="fill:#FFFFFF;" d="M19.48,332.227h17.067c-6.827,0-11.947,5.12-11.947,11.947v79.36
			c0,5.973,5.12,11.093,11.947,11.093H19.48c-6.827,0-11.947-5.12-11.947-11.947v-79.36C7.533,337.347,12.653,332.227,19.48,332.227
			"/>
		<path style="fill:#FFFFFF;" d="M37.4,281.027h17.067c-6.827,0-12.8,5.973-12.8,12.8v38.4H24.6v-38.4
			C24.6,287,30.573,281.027,37.4,281.027"/>
		<polygon style="fill:#FFFFFF;" points="7.533,59.16 24.6,59.16 24.6,7.96 7.533,7.96 		"/>
	</g>
	<g>
		<path style="fill:#FFE100;" d="M297.667,144.493h-85.333v-8.533c0-23.893,18.773-42.667,42.667-42.667
			s42.667,18.773,42.667,42.667V144.493z"/>
		<path style="fill:#FFE100;" d="M212.333,195.693h85.333v8.533c0,23.893-18.773,42.667-42.667,42.667s-42.667-18.773-42.667-42.667
			V195.693z"/>
	</g>
	<g>
		<path style="fill:#63D3FD;" d="M101.4,383.427c0,9.387-7.68,17.067-17.067,17.067s-17.067-7.68-17.067-17.067
			s7.68-17.067,17.067-17.067S101.4,374.04,101.4,383.427"/>
		<path style="fill:#63D3FD;" d="M169.667,383.427c0,9.387-7.68,17.067-17.067,17.067s-17.067-7.68-17.067-17.067
			s7.68-17.067,17.067-17.067S169.667,374.04,169.667,383.427"/>
		<path style="fill:#63D3FD;" d="M237.933,383.427c0,9.387-7.68,17.067-17.067,17.067c-9.387,0-17.067-7.68-17.067-17.067
			s7.68-17.067,17.067-17.067C230.253,366.36,237.933,374.04,237.933,383.427"/>
		<path style="fill:#63D3FD;" d="M306.2,383.427c0,9.387-7.68,17.067-17.067,17.067c-9.387,0-17.067-7.68-17.067-17.067
			s7.68-17.067,17.067-17.067C298.52,366.36,306.2,374.04,306.2,383.427"/>
		<path style="fill:#63D3FD;" d="M374.467,383.427c0,9.387-7.68,17.067-17.067,17.067s-17.067-7.68-17.067-17.067
			s7.68-17.067,17.067-17.067S374.467,374.04,374.467,383.427"/>
		<path style="fill:#63D3FD;" d="M442.733,383.427c0,9.387-7.68,17.067-17.067,17.067s-17.067-7.68-17.067-17.067
			s7.68-17.067,17.067-17.067S442.733,374.04,442.733,383.427"/>
	</g>
	<path d="M84.333,511.427h-51.2c-5.12,0-8.533-3.413-8.533-8.533v-68.267c0-5.12,3.413-8.533,8.533-8.533h51.2
		c5.12,0,8.533,3.413,8.533,8.533v68.267C92.867,508.013,89.453,511.427,84.333,511.427z M41.667,494.36H75.8v-51.2H41.667V494.36z"
		/>
	<path d="M476.867,511.427h-51.2c-5.12,0-8.533-3.413-8.533-8.533v-68.267c0-5.12,3.413-8.533,8.533-8.533h51.2
		c5.12,0,8.533,3.413,8.533,8.533v68.267C485.4,508.013,481.987,511.427,476.867,511.427z M434.2,494.36h34.133v-51.2H434.2V494.36z
		"/>
	<path d="M490.52,443.16H19.48C8.387,443.16-1,433.773-1,422.68v-79.36c0-11.093,9.387-20.48,20.48-20.48h471.893
		c11.093,0,20.48,9.387,20.48,20.48v79.36C511,433.773,501.613,443.16,490.52,443.16z M19.48,340.76
		c-1.707,0-3.413,1.707-3.413,3.413v79.36c0,0.853,1.707,2.56,3.413,2.56h471.893c1.707,0,3.413-1.707,3.413-3.413v-79.36
		c0-1.707-1.707-3.413-3.413-3.413H19.48V340.76z"/>
	<path d="M84.333,409.027c-14.507,0-25.6-11.093-25.6-25.6s11.093-25.6,25.6-25.6s25.6,11.093,25.6,25.6
		S98.84,409.027,84.333,409.027z M84.333,374.893c-5.12,0-8.533,3.413-8.533,8.533s3.413,8.533,8.533,8.533s8.533-3.413,8.533-8.533
		S89.453,374.893,84.333,374.893z"/>
	<path d="M152.6,409.027c-14.507,0-25.6-11.093-25.6-25.6s11.093-25.6,25.6-25.6c14.507,0,25.6,11.093,25.6,25.6
		S167.107,409.027,152.6,409.027z M152.6,374.893c-5.12,0-8.533,3.413-8.533,8.533s3.413,8.533,8.533,8.533
		c5.12,0,8.533-3.413,8.533-8.533S157.72,374.893,152.6,374.893z"/>
	<path d="M220.867,409.027c-14.507,0-25.6-11.093-25.6-25.6s11.093-25.6,25.6-25.6c14.507,0,25.6,11.093,25.6,25.6
		S235.373,409.027,220.867,409.027z M220.867,374.893c-5.12,0-8.533,3.413-8.533,8.533s3.413,8.533,8.533,8.533
		c5.12,0,8.533-3.413,8.533-8.533S225.987,374.893,220.867,374.893z"/>
	<path d="M289.133,409.027c-14.507,0-25.6-11.093-25.6-25.6s11.093-25.6,25.6-25.6c14.507,0,25.6,11.093,25.6,25.6
		S303.64,409.027,289.133,409.027z M289.133,374.893c-5.12,0-8.533,3.413-8.533,8.533s3.413,8.533,8.533,8.533
		c5.12,0,8.533-3.413,8.533-8.533S294.253,374.893,289.133,374.893z"/>
	<path d="M357.4,409.027c-14.507,0-25.6-11.093-25.6-25.6s11.093-25.6,25.6-25.6s25.6,11.093,25.6,25.6
		S371.907,409.027,357.4,409.027z M357.4,374.893c-5.12,0-8.533,3.413-8.533,8.533s3.413,8.533,8.533,8.533s8.533-3.413,8.533-8.533
		S362.52,374.893,357.4,374.893z"/>
	<path d="M425.667,409.027c-14.507,0-25.6-11.093-25.6-25.6s11.093-25.6,25.6-25.6s25.6,11.093,25.6,25.6
		S440.173,409.027,425.667,409.027z M425.667,374.893c-5.12,0-8.533,3.413-8.533,8.533s3.413,8.533,8.533,8.533
		s8.533-3.413,8.533-8.533S430.787,374.893,425.667,374.893z"/>
	<path d="M485.4,340.76H24.6c-5.12,0-8.533-3.413-8.533-8.533v-38.4c0-11.947,9.387-21.333,21.333-21.333h435.2
		c11.947,0,21.333,9.387,21.333,21.333v38.4C493.933,337.347,490.52,340.76,485.4,340.76z M33.133,323.693h443.733v-29.867
		c0-2.56-1.707-4.267-4.267-4.267H37.4c-2.56,0-4.267,1.707-4.267,4.267V323.693z"/>
	<path d="M502.467,511.427H7.533c-5.12,0-8.533-3.413-8.533-8.533s3.413-8.533,8.533-8.533h494.933c5.12,0,8.533,3.413,8.533,8.533
		S507.587,511.427,502.467,511.427z"/>
	<path d="M502.467,67.693H7.533C2.413,67.693-1,64.28-1,59.16V7.96c0-5.12,3.413-8.533,8.533-8.533h494.933
		c5.12,0,8.533,3.413,8.533,8.533v51.2C511,64.28,507.587,67.693,502.467,67.693z M16.067,50.627h477.867V16.493H16.067V50.627z"/>
	<path d="M101.4,289.56H33.133V50.627H101.4V289.56z M50.2,272.493h34.133v-204.8H50.2V272.493z"/>
	<path d="M476.867,289.56H408.6V50.627h68.267V289.56z M425.667,272.493H459.8v-204.8h-34.133V272.493z"/>
	<path d="M272.067,101.827h-34.133c-5.12,0-8.533-3.413-8.533-8.533V59.16c0-5.12,3.413-8.533,8.533-8.533h34.133
		c5.12,0,8.533,3.413,8.533,8.533v34.133C280.6,98.413,277.187,101.827,272.067,101.827z M246.467,84.76h17.067V67.693h-17.067
		V84.76z"/>
	<path d="M297.667,153.027h-85.333c-5.12,0-8.533-3.413-8.533-8.533v-8.533c0-28.16,23.04-51.2,51.2-51.2s51.2,23.04,51.2,51.2
		v8.533C306.2,149.613,302.787,153.027,297.667,153.027z M220.867,135.96h68.267c0-18.773-15.36-34.133-34.133-34.133
		S220.867,117.187,220.867,135.96z"/>
	<path d="M272.067,289.56h-34.133c-5.12,0-8.533-3.413-8.533-8.533v-34.133c0-5.12,3.413-8.533,8.533-8.533h34.133
		c5.12,0,8.533,3.413,8.533,8.533v34.133C280.6,286.147,277.187,289.56,272.067,289.56z M246.467,272.493h17.067v-17.067h-17.067
		V272.493z"/>
	<path d="M255,255.427c-28.16,0-51.2-23.04-51.2-51.2v-8.533c0-5.12,3.413-8.533,8.533-8.533h85.333c5.12,0,8.533,3.413,8.533,8.533
		v8.533C306.2,232.387,283.16,255.427,255,255.427z M220.867,204.227c0,18.773,15.36,34.133,34.133,34.133
		s34.133-15.36,34.133-34.133H220.867z"/>
	<path d="M314.733,204.227H195.267c-5.12,0-8.533-3.413-8.533-8.533c0-5.12,3.413-8.533,8.533-8.533h119.467
		c5.12,0,8.533,3.413,8.533,8.533C323.267,200.813,319.853,204.227,314.733,204.227z"/>
	<path d="M314.733,153.027H195.267c-5.12,0-8.533-3.413-8.533-8.533c0-5.12,3.413-8.533,8.533-8.533h119.467
		c5.12,0,8.533,3.413,8.533,8.533C323.267,149.613,319.853,153.027,314.733,153.027z"/>
</g>
</svg>