<?xml version="1.0" encoding="UTF-8"?>
<svg xmlns="http://www.w3.org/2000/svg" xmlns:xlink="http://www.w3.org/1999/xlink" width="33px" height="30px" viewBox="0 0 33 30" version="1.1">
<g id="surface1">
<path style=" stroke:none;fill-rule:nonzero;fill:rgb(0%,0%,0%);fill-opacity:1;" d="M 15.914062 2.214844 C 15.65625 2.238281 15.359375 2.277344 15.316406 2.292969 C 15.304688 2.296875 15.265625 2.304688 15.230469 2.3125 C 15.164062 2.320312 15.105469 2.335938 14.9375 2.382812 C 14.796875 2.417969 14.664062 2.460938 14.589844 2.488281 C 14.554688 2.5 14.507812 2.515625 14.492188 2.519531 C 14.375 2.550781 14.230469 2.617188 14.179688 2.664062 C 14.058594 2.769531 14.042969 2.851562 14.082031 3.175781 C 14.09375 3.277344 14.113281 3.445312 14.125 3.542969 C 14.136719 3.640625 14.148438 3.769531 14.15625 3.832031 C 14.167969 3.890625 14.179688 4.019531 14.191406 4.125 C 14.203125 4.226562 14.21875 4.386719 14.230469 4.480469 C 14.3125 5.199219 14.324219 5.316406 14.351562 5.558594 C 14.363281 5.664062 14.367188 5.757812 14.363281 5.761719 C 14.359375 5.769531 14.339844 5.777344 14.324219 5.777344 C 14.308594 5.777344 14.25 5.785156 14.195312 5.796875 C 14.140625 5.808594 14.054688 5.828125 14 5.835938 C 13.882812 5.859375 13.75 5.890625 13.671875 5.910156 C 13.621094 5.925781 13.59375 5.933594 13.394531 5.980469 C 13.347656 5.988281 13.292969 6.003906 13.265625 6.011719 C 13.21875 6.027344 13.125 6.054688 12.925781 6.117188 C 12.863281 6.136719 12.785156 6.160156 12.753906 6.171875 C 12.726562 6.183594 12.675781 6.199219 12.640625 6.210938 C 12.609375 6.21875 12.539062 6.242188 12.488281 6.261719 C 12.4375 6.285156 12.351562 6.316406 12.296875 6.335938 C 12.242188 6.355469 12.167969 6.382812 12.136719 6.394531 C 12.105469 6.40625 12.058594 6.429688 12.027344 6.445312 C 12 6.457031 11.96875 6.46875 11.960938 6.46875 C 11.949219 6.46875 11.914062 6.484375 11.875 6.503906 C 11.839844 6.519531 11.757812 6.558594 11.695312 6.585938 C 11.476562 6.679688 10.949219 6.949219 10.75 7.066406 C 10.703125 7.09375 10.636719 7.132812 10.597656 7.152344 C 10.53125 7.1875 10.46875 7.226562 10.386719 7.28125 C 10.367188 7.296875 10.324219 7.324219 10.296875 7.339844 C 10.269531 7.355469 10.164062 7.421875 10.066406 7.492188 C 9.964844 7.558594 9.851562 7.636719 9.816406 7.660156 C 9.777344 7.6875 9.726562 7.722656 9.703125 7.742188 C 9.679688 7.757812 9.625 7.800781 9.578125 7.835938 C 9.535156 7.867188 9.476562 7.914062 9.449219 7.9375 C 9.421875 7.957031 9.378906 7.992188 9.355469 8.007812 C 9.328125 8.027344 9.285156 8.0625 9.253906 8.085938 C 9.222656 8.113281 9.167969 8.160156 9.125 8.195312 C 8.703125 8.554688 8.144531 9.109375 7.851562 9.472656 C 7.617188 9.753906 7.523438 9.878906 7.433594 10.007812 C 7.40625 10.042969 7.363281 10.105469 7.335938 10.140625 C 7.308594 10.179688 7.246094 10.269531 7.199219 10.34375 C 7.148438 10.414062 7.097656 10.492188 7.085938 10.511719 C 7.050781 10.5625 6.988281 10.660156 6.941406 10.746094 C 6.917969 10.78125 6.890625 10.832031 6.871094 10.855469 C 6.824219 10.933594 6.714844 11.128906 6.636719 11.285156 C 6.613281 11.332031 6.566406 11.417969 6.539062 11.476562 C 6.507812 11.535156 6.464844 11.621094 6.441406 11.671875 C 6.421875 11.71875 6.386719 11.792969 6.367188 11.839844 C 6.347656 11.882812 6.320312 11.945312 6.308594 11.980469 C 6.292969 12.011719 6.261719 12.089844 6.234375 12.152344 C 6.207031 12.214844 6.175781 12.289062 6.167969 12.320312 C 6.15625 12.347656 6.128906 12.421875 6.109375 12.488281 C 6.039062 12.683594 5.9375 12.988281 5.894531 13.148438 C 5.878906 13.207031 5.859375 13.285156 5.847656 13.320312 C 5.828125 13.382812 5.804688 13.496094 5.753906 13.710938 C 5.746094 13.753906 5.730469 13.820312 5.722656 13.859375 C 5.714844 13.898438 5.699219 13.964844 5.695312 14.007812 C 5.6875 14.050781 5.675781 14.121094 5.667969 14.164062 C 5.609375 14.542969 5.582031 14.765625 5.558594 15.1875 C 5.527344 15.671875 5.546875 16.421875 5.601562 16.839844 C 5.644531 17.140625 5.691406 17.441406 5.722656 17.601562 C 5.765625 17.808594 5.777344 17.863281 5.804688 17.960938 C 5.859375 18.183594 5.886719 18.296875 5.941406 18.472656 C 5.953125 18.507812 5.960938 18.550781 5.960938 18.5625 C 5.960938 18.617188 6.113281 19.054688 6.195312 19.238281 C 6.207031 19.261719 6.230469 19.316406 6.242188 19.359375 C 6.253906 19.398438 6.28125 19.472656 6.300781 19.527344 C 6.320312 19.578125 6.347656 19.65625 6.359375 19.703125 C 6.425781 19.914062 6.4375 19.960938 6.472656 20.074219 C 6.527344 20.261719 6.542969 20.332031 6.574219 20.460938 C 6.589844 20.527344 6.605469 20.605469 6.613281 20.636719 C 6.679688 20.929688 6.738281 21.300781 6.753906 21.570312 C 6.761719 21.699219 6.761719 22.167969 6.753906 22.246094 C 6.714844 22.609375 6.644531 22.878906 6.511719 23.148438 C 6.445312 23.28125 6.441406 23.304688 6.441406 23.382812 C 6.441406 23.449219 6.449219 23.488281 6.476562 23.539062 C 6.566406 23.726562 6.761719 23.789062 7.238281 23.789062 C 7.601562 23.789062 7.882812 23.738281 8.210938 23.613281 C 8.3125 23.574219 8.332031 23.578125 8.367188 23.632812 C 8.378906 23.652344 8.417969 23.703125 8.449219 23.742188 C 8.519531 23.828125 8.835938 24.144531 8.851562 24.144531 C 8.855469 24.144531 8.890625 24.171875 8.929688 24.203125 C 8.964844 24.238281 9 24.265625 9.007812 24.265625 C 9.015625 24.265625 9.054688 24.292969 9.097656 24.324219 C 9.171875 24.378906 9.257812 24.421875 9.429688 24.484375 C 9.472656 24.5 9.519531 24.519531 9.527344 24.527344 C 9.539062 24.53125 9.582031 24.546875 9.625 24.558594 C 9.671875 24.574219 9.757812 24.597656 9.820312 24.617188 C 9.882812 24.640625 9.96875 24.660156 10.011719 24.671875 C 10.058594 24.683594 10.121094 24.695312 10.152344 24.703125 C 10.1875 24.710938 10.257812 24.722656 10.3125 24.734375 C 10.625 24.777344 10.703125 24.800781 10.871094 24.886719 C 11.132812 25.015625 11.394531 25.230469 11.628906 25.496094 C 11.800781 25.691406 11.863281 25.777344 11.976562 25.980469 C 12.007812 26.039062 12.054688 26.109375 12.078125 26.136719 C 12.097656 26.160156 12.136719 26.210938 12.160156 26.242188 C 12.226562 26.339844 12.460938 26.574219 12.542969 26.625 C 12.5625 26.640625 12.601562 26.667969 12.628906 26.691406 C 12.738281 26.785156 12.976562 26.917969 13.328125 27.085938 C 13.667969 27.25 14.324219 27.417969 14.816406 27.472656 C 14.890625 27.480469 14.988281 27.492188 15.035156 27.5 C 15.285156 27.542969 16.902344 27.546875 17.390625 27.507812 C 17.554688 27.496094 17.722656 27.480469 17.765625 27.472656 C 17.804688 27.464844 17.886719 27.453125 17.949219 27.445312 C 18.253906 27.40625 18.59375 27.332031 18.847656 27.253906 C 18.886719 27.242188 18.949219 27.21875 18.996094 27.207031 C 19.097656 27.171875 19.238281 27.121094 19.277344 27.101562 C 19.292969 27.09375 19.335938 27.078125 19.367188 27.0625 C 19.40625 27.050781 19.449219 27.03125 19.46875 27.019531 C 19.484375 27.007812 19.515625 26.992188 19.535156 26.984375 C 19.550781 26.980469 19.601562 26.957031 19.640625 26.933594 C 19.679688 26.90625 19.730469 26.878906 19.757812 26.863281 C 19.851562 26.804688 19.925781 26.753906 19.988281 26.703125 C 20.023438 26.667969 20.058594 26.644531 20.0625 26.644531 C 20.089844 26.644531 20.417969 26.296875 20.453125 26.230469 C 20.460938 26.210938 20.484375 26.179688 20.5 26.160156 C 20.515625 26.140625 20.550781 26.085938 20.574219 26.039062 C 20.609375 25.976562 20.675781 25.898438 20.859375 25.714844 C 20.988281 25.582031 21.128906 25.449219 21.171875 25.417969 C 21.210938 25.386719 21.273438 25.335938 21.308594 25.308594 C 21.375 25.253906 21.503906 25.160156 21.5625 25.121094 C 21.707031 25.023438 21.761719 24.992188 21.953125 24.898438 C 22.210938 24.769531 22.375 24.722656 22.695312 24.679688 C 22.761719 24.667969 22.835938 24.65625 22.867188 24.648438 C 22.894531 24.644531 22.953125 24.628906 22.996094 24.617188 C 23.089844 24.597656 23.195312 24.558594 23.320312 24.496094 C 23.371094 24.472656 23.421875 24.453125 23.425781 24.453125 C 23.445312 24.453125 23.675781 24.304688 23.761719 24.242188 C 23.980469 24.070312 24.199219 23.84375 24.335938 23.644531 C 24.359375 23.609375 24.386719 23.578125 24.398438 23.574219 C 24.40625 23.570312 24.460938 23.585938 24.519531 23.605469 C 24.867188 23.738281 25.136719 23.789062 25.507812 23.789062 C 25.875 23.789062 26.074219 23.75 26.183594 23.65625 C 26.261719 23.585938 26.308594 23.492188 26.308594 23.382812 C 26.308594 23.304688 26.300781 23.28125 26.234375 23.148438 C 26.101562 22.878906 26.03125 22.609375 25.992188 22.246094 C 25.984375 22.167969 25.984375 21.699219 25.992188 21.570312 C 26.011719 21.300781 26.066406 20.929688 26.132812 20.636719 C 26.140625 20.605469 26.160156 20.527344 26.171875 20.460938 C 26.214844 20.277344 26.300781 19.972656 26.386719 19.710938 C 26.410156 19.632812 26.476562 19.464844 26.515625 19.371094 C 26.527344 19.347656 26.550781 19.289062 26.566406 19.246094 C 26.582031 19.199219 26.613281 19.121094 26.632812 19.070312 C 26.675781 18.960938 26.800781 18.585938 26.835938 18.460938 C 26.867188 18.371094 26.894531 18.253906 26.945312 18.0625 C 26.960938 18 26.984375 17.917969 26.992188 17.882812 C 27.003906 17.847656 27.011719 17.808594 27.011719 17.796875 C 27.011719 17.785156 27.019531 17.734375 27.03125 17.6875 C 27.066406 17.527344 27.101562 17.339844 27.128906 17.144531 C 27.164062 16.90625 27.171875 16.84375 27.1875 16.703125 C 27.191406 16.621094 27.203125 16.5 27.214844 16.429688 C 27.21875 16.359375 27.226562 16.097656 27.230469 15.847656 C 27.234375 15.484375 27.230469 15.328125 27.210938 15.066406 C 27.175781 14.644531 27.140625 14.332031 27.105469 14.152344 C 27.097656 14.105469 27.082031 14.039062 27.078125 13.996094 C 27.046875 13.828125 27 13.605469 26.949219 13.410156 C 26.886719 13.167969 26.867188 13.085938 26.859375 13.074219 C 26.855469 13.066406 26.839844 13.019531 26.824219 12.972656 C 26.777344 12.792969 26.726562 12.636719 26.644531 12.425781 C 26.625 12.375 26.597656 12.300781 26.585938 12.265625 C 26.574219 12.230469 26.539062 12.148438 26.511719 12.085938 C 26.484375 12.023438 26.453125 11.949219 26.445312 11.917969 C 26.433594 11.890625 26.414062 11.84375 26.398438 11.816406 C 26.386719 11.792969 26.355469 11.730469 26.332031 11.679688 C 26.285156 11.570312 26.164062 11.332031 26.101562 11.210938 C 26.078125 11.164062 26.039062 11.097656 26.019531 11.054688 C 25.996094 11.011719 25.964844 10.960938 25.949219 10.9375 C 25.933594 10.917969 25.921875 10.894531 25.921875 10.886719 C 25.921875 10.882812 25.898438 10.84375 25.871094 10.800781 C 25.84375 10.757812 25.808594 10.703125 25.792969 10.679688 C 25.722656 10.5625 25.667969 10.46875 25.574219 10.332031 C 25.363281 10.027344 25.351562 10.011719 25.234375 9.863281 C 25.199219 9.824219 25.175781 9.789062 25.175781 9.785156 C 25.175781 9.777344 25.152344 9.742188 25.121094 9.707031 C 25.089844 9.671875 25.035156 9.605469 24.996094 9.558594 C 24.863281 9.394531 24.480469 8.972656 24.289062 8.78125 C 24.089844 8.585938 23.746094 8.269531 23.59375 8.148438 C 23.546875 8.109375 23.480469 8.058594 23.445312 8.027344 C 23.410156 8 23.34375 7.949219 23.300781 7.914062 C 23.253906 7.882812 23.195312 7.835938 23.171875 7.8125 C 23.144531 7.792969 23.09375 7.753906 23.0625 7.730469 C 22.910156 7.625 22.8125 7.558594 22.753906 7.519531 C 22.71875 7.496094 22.675781 7.46875 22.660156 7.457031 C 22.59375 7.40625 22.449219 7.3125 22.441406 7.3125 C 22.433594 7.3125 22.398438 7.289062 22.355469 7.261719 C 22.097656 7.09375 21.597656 6.828125 21.171875 6.628906 C 20.957031 6.527344 20.765625 6.445312 20.75 6.445312 C 20.742188 6.445312 20.722656 6.433594 20.699219 6.421875 C 20.675781 6.410156 20.628906 6.390625 20.589844 6.378906 C 20.554688 6.363281 20.476562 6.335938 20.410156 6.308594 C 20.222656 6.242188 20.117188 6.203125 20.066406 6.1875 C 20.039062 6.179688 19.992188 6.164062 19.953125 6.152344 C 19.871094 6.121094 19.742188 6.082031 19.605469 6.042969 C 19.546875 6.027344 19.460938 6.003906 19.414062 5.988281 C 19.367188 5.972656 19.320312 5.960938 19.308594 5.960938 C 19.300781 5.960938 19.265625 5.953125 19.230469 5.945312 C 19.109375 5.90625 18.792969 5.835938 18.601562 5.800781 C 18.570312 5.796875 18.503906 5.785156 18.453125 5.773438 L 18.363281 5.753906 L 18.363281 5.695312 C 18.363281 5.660156 18.371094 5.589844 18.375 5.535156 C 18.382812 5.480469 18.398438 5.351562 18.40625 5.253906 C 18.417969 5.15625 18.433594 5.023438 18.441406 4.960938 C 18.457031 4.832031 18.476562 4.695312 18.554688 3.957031 C 18.566406 3.851562 18.585938 3.683594 18.597656 3.582031 C 18.609375 3.484375 18.621094 3.363281 18.628906 3.316406 C 18.667969 2.996094 18.671875 2.933594 18.648438 2.859375 C 18.617188 2.75 18.5625 2.683594 18.457031 2.632812 C 18.410156 2.609375 18.347656 2.582031 18.324219 2.566406 C 18.296875 2.554688 18.261719 2.539062 18.242188 2.535156 C 18.222656 2.53125 18.175781 2.511719 18.128906 2.496094 C 18.023438 2.453125 17.78125 2.382812 17.609375 2.339844 C 17.417969 2.292969 17.171875 2.25 16.867188 2.21875 C 16.667969 2.199219 16.128906 2.195312 15.914062 2.214844 Z M 16.722656 2.941406 C 16.84375 2.949219 16.960938 2.960938 16.984375 2.96875 C 17.007812 2.976562 17.042969 2.980469 17.066406 2.980469 C 17.09375 2.980469 17.136719 2.988281 17.167969 2.992188 C 17.199219 3 17.253906 3.011719 17.292969 3.019531 C 17.464844 3.054688 17.855469 3.160156 17.90625 3.1875 C 17.90625 3.1875 17.902344 3.242188 17.894531 3.300781 C 17.875 3.515625 17.84375 3.777344 17.824219 3.949219 C 17.796875 4.183594 17.777344 4.367188 17.769531 4.433594 C 17.757812 4.542969 17.738281 4.703125 17.71875 4.871094 C 17.652344 5.453125 17.628906 5.660156 17.605469 5.894531 C 17.597656 5.964844 17.589844 6.046875 17.585938 6.074219 C 17.582031 6.105469 17.570312 6.179688 17.566406 6.238281 C 17.558594 6.296875 17.542969 6.429688 17.53125 6.53125 C 17.507812 6.734375 17.480469 6.964844 17.453125 7.238281 C 17.425781 7.484375 17.394531 7.769531 17.378906 7.886719 C 17.371094 7.941406 17.355469 8.070312 17.34375 8.175781 C 17.316406 8.421875 17.296875 8.578125 17.226562 9.25 C 17.214844 9.347656 17.199219 9.476562 17.191406 9.53125 C 17.183594 9.585938 17.171875 9.714844 17.160156 9.820312 C 17.148438 9.921875 17.132812 10.050781 17.125 10.105469 C 17.117188 10.160156 17.113281 10.210938 17.113281 10.214844 C 17.109375 10.238281 16.878906 10.277344 16.632812 10.292969 C 16.460938 10.308594 16.019531 10.304688 15.996094 10.289062 C 15.992188 10.285156 15.910156 10.273438 15.820312 10.261719 C 15.636719 10.238281 15.609375 10.234375 15.605469 10.207031 C 15.605469 10.195312 15.59375 10.089844 15.570312 9.871094 C 15.5625 9.804688 15.550781 9.730469 15.546875 9.699219 C 15.546875 9.667969 15.535156 9.589844 15.527344 9.519531 C 15.507812 9.324219 15.449219 8.832031 15.414062 8.515625 C 15.367188 8.066406 15.316406 7.628906 15.300781 7.5 C 15.292969 7.445312 15.28125 7.316406 15.269531 7.210938 C 15.257812 7.109375 15.238281 6.949219 15.230469 6.859375 C 15.21875 6.765625 15.203125 6.605469 15.1875 6.496094 C 15.175781 6.390625 15.160156 6.230469 15.148438 6.136719 C 15.125 5.917969 15.089844 5.621094 15.078125 5.496094 C 15.0625 5.398438 15.050781 5.265625 15.003906 4.851562 C 14.992188 4.753906 14.976562 4.59375 14.964844 4.5 C 14.953125 4.402344 14.933594 4.242188 14.925781 4.136719 C 14.886719 3.796875 14.863281 3.605469 14.851562 3.484375 C 14.84375 3.414062 14.828125 3.320312 14.824219 3.273438 L 14.816406 3.183594 L 14.871094 3.164062 C 14.953125 3.132812 15.183594 3.066406 15.375 3.027344 C 15.425781 3.015625 15.492188 3 15.527344 2.992188 C 15.554688 2.988281 15.601562 2.980469 15.625 2.980469 C 15.644531 2.980469 15.6875 2.972656 15.71875 2.96875 C 15.796875 2.949219 16.222656 2.921875 16.375 2.921875 C 16.449219 2.925781 16.605469 2.933594 16.722656 2.941406 Z M 14.457031 6.539062 C 14.460938 6.5625 14.472656 6.652344 14.480469 6.738281 C 14.488281 6.820312 14.5 6.960938 14.511719 7.046875 C 14.542969 7.328125 14.5625 7.539062 14.554688 7.546875 C 14.554688 7.546875 14.433594 7.570312 14.292969 7.597656 C 13.402344 7.765625 12.589844 8.015625 11.765625 8.378906 C 11.675781 8.417969 11.628906 8.445312 11.628906 8.460938 C 11.628906 8.546875 11.957031 9.097656 12.058594 9.183594 C 12.074219 9.195312 12.105469 9.1875 12.230469 9.136719 C 12.691406 8.945312 13.1875 8.824219 13.503906 8.824219 C 13.773438 8.824219 13.984375 8.902344 14.035156 9.023438 C 14.050781 9.0625 14.054688 9.085938 14.039062 9.144531 C 14.011719 9.285156 13.898438 9.4375 13.519531 9.839844 C 13.28125 10.097656 13.183594 10.210938 13.195312 10.230469 C 13.199219 10.238281 13.230469 10.28125 13.265625 10.328125 C 13.523438 10.667969 13.6875 11.101562 13.714844 11.519531 C 13.722656 11.65625 13.710938 11.886719 13.695312 11.886719 C 13.691406 11.882812 13.660156 11.84375 13.632812 11.796875 C 13.566406 11.6875 13.414062 11.527344 13.273438 11.421875 C 13.117188 11.304688 12.640625 10.976562 12.632812 10.976562 C 12.625 10.976562 12.574219 11.039062 12.515625 11.113281 C 12.457031 11.1875 12.3125 11.347656 12.191406 11.46875 L 11.976562 11.695312 L 12.097656 11.773438 C 12.761719 12.210938 13.238281 12.730469 13.539062 13.347656 C 13.664062 13.601562 13.746094 13.832031 13.792969 14.070312 C 13.828125 14.234375 13.863281 14.617188 13.847656 14.632812 C 13.84375 14.640625 13.773438 14.578125 13.691406 14.5 C 13.347656 14.171875 13.179688 14.0625 12.621094 13.816406 C 12.132812 13.601562 11.425781 13.207031 11.0625 12.949219 C 10.523438 12.566406 10.132812 12 9.894531 11.257812 C 9.757812 10.835938 9.683594 10.367188 9.664062 9.832031 L 9.65625 9.574219 L 9.507812 9.683594 C 8.941406 10.097656 8.511719 10.460938 8.011719 10.957031 C 7.707031 11.257812 7.457031 11.527344 7.265625 11.753906 C 7.214844 11.820312 7.167969 11.871094 7.164062 11.871094 C 7.15625 11.871094 7.175781 11.824219 7.203125 11.789062 C 7.214844 11.769531 7.234375 11.734375 7.242188 11.707031 C 7.25 11.683594 7.265625 11.648438 7.277344 11.632812 C 7.292969 11.613281 7.316406 11.570312 7.332031 11.539062 C 7.347656 11.503906 7.382812 11.4375 7.410156 11.390625 C 7.441406 11.34375 7.476562 11.277344 7.496094 11.242188 C 7.511719 11.210938 7.539062 11.160156 7.558594 11.132812 C 7.578125 11.105469 7.613281 11.050781 7.640625 11.007812 C 7.664062 10.964844 7.722656 10.875 7.765625 10.808594 C 7.808594 10.746094 7.859375 10.667969 7.878906 10.640625 C 7.894531 10.613281 7.925781 10.570312 7.945312 10.546875 C 8.019531 10.445312 8.039062 10.417969 8.074219 10.367188 C 8.09375 10.339844 8.128906 10.292969 8.148438 10.265625 C 8.171875 10.238281 8.214844 10.183594 8.25 10.140625 C 8.363281 10 8.617188 9.703125 8.710938 9.605469 C 8.996094 9.304688 9.445312 8.878906 9.617188 8.742188 C 9.644531 8.722656 9.699219 8.675781 9.742188 8.644531 C 9.878906 8.527344 10.054688 8.394531 10.171875 8.308594 C 10.210938 8.285156 10.265625 8.242188 10.300781 8.21875 C 10.375 8.167969 10.566406 8.039062 10.667969 7.972656 C 10.839844 7.863281 10.882812 7.835938 10.976562 7.78125 C 11.03125 7.75 11.097656 7.710938 11.121094 7.695312 C 11.167969 7.667969 11.175781 7.664062 11.4375 7.527344 C 11.617188 7.433594 11.671875 7.40625 11.777344 7.355469 C 11.902344 7.296875 12.019531 7.246094 12.074219 7.21875 C 12.164062 7.175781 12.320312 7.113281 12.332031 7.113281 C 12.335938 7.113281 12.359375 7.101562 12.382812 7.089844 C 12.402344 7.082031 12.453125 7.058594 12.488281 7.046875 C 12.523438 7.03125 12.597656 7.003906 12.648438 6.988281 C 12.699219 6.964844 12.765625 6.941406 12.800781 6.933594 C 12.835938 6.921875 12.921875 6.890625 13 6.867188 C 13.1875 6.800781 13.28125 6.773438 13.386719 6.746094 C 13.433594 6.734375 13.511719 6.710938 13.558594 6.699219 C 13.640625 6.675781 13.71875 6.65625 13.871094 6.617188 C 13.910156 6.609375 13.96875 6.59375 14.011719 6.589844 C 14.050781 6.582031 14.09375 6.570312 14.105469 6.5625 C 14.121094 6.554688 14.148438 6.550781 14.167969 6.550781 C 14.191406 6.550781 14.226562 6.542969 14.25 6.535156 C 14.28125 6.523438 14.382812 6.503906 14.433594 6.5 C 14.441406 6.5 14.453125 6.515625 14.457031 6.539062 Z M 18.445312 6.515625 C 18.492188 6.527344 18.570312 6.542969 18.621094 6.554688 C 18.839844 6.601562 18.929688 6.621094 18.984375 6.640625 C 19.015625 6.648438 19.050781 6.65625 19.0625 6.65625 C 19.074219 6.65625 19.117188 6.667969 19.160156 6.679688 C 19.289062 6.714844 19.417969 6.753906 19.496094 6.78125 C 19.539062 6.792969 19.582031 6.804688 19.59375 6.804688 C 19.605469 6.804688 19.632812 6.8125 19.65625 6.824219 C 19.679688 6.835938 19.757812 6.859375 19.828125 6.882812 C 19.894531 6.90625 20.003906 6.945312 20.066406 6.964844 C 20.128906 6.988281 20.203125 7.015625 20.234375 7.027344 C 20.261719 7.035156 20.335938 7.066406 20.398438 7.09375 C 20.460938 7.117188 20.53125 7.148438 20.558594 7.160156 C 20.609375 7.179688 20.734375 7.234375 20.816406 7.273438 C 20.847656 7.285156 20.914062 7.316406 20.964844 7.339844 C 21.144531 7.421875 21.421875 7.566406 21.675781 7.710938 C 21.710938 7.730469 21.765625 7.761719 21.796875 7.78125 C 21.828125 7.796875 21.882812 7.832031 21.917969 7.851562 C 21.949219 7.875 22 7.90625 22.023438 7.921875 C 22.171875 8.011719 22.300781 8.09375 22.347656 8.132812 C 22.371094 8.148438 22.40625 8.175781 22.429688 8.1875 C 22.449219 8.199219 22.503906 8.238281 22.546875 8.269531 C 22.589844 8.300781 22.660156 8.351562 22.695312 8.375 C 22.734375 8.402344 22.769531 8.429688 22.773438 8.4375 C 22.78125 8.445312 22.808594 8.464844 22.835938 8.484375 C 22.890625 8.519531 22.921875 8.542969 23.070312 8.667969 C 23.105469 8.699219 23.164062 8.746094 23.199219 8.777344 C 23.570312 9.085938 24.078125 9.597656 24.371094 9.953125 C 24.398438 9.988281 24.445312 10.042969 24.46875 10.070312 C 24.582031 10.203125 24.859375 10.582031 25.050781 10.867188 C 25.0625 10.886719 25.089844 10.929688 25.113281 10.957031 C 25.132812 10.988281 25.148438 11.019531 25.148438 11.027344 C 25.148438 11.035156 25.167969 11.0625 25.1875 11.09375 C 25.210938 11.121094 25.238281 11.167969 25.253906 11.199219 C 25.269531 11.226562 25.292969 11.265625 25.304688 11.285156 C 25.316406 11.300781 25.1875 11.179688 25.015625 11.007812 C 24.558594 10.558594 24.238281 10.28125 23.777344 9.933594 C 23.5625 9.773438 23.125 9.464844 23.109375 9.464844 C 23.109375 9.464844 23.105469 9.597656 23.105469 9.761719 C 23.097656 11.050781 22.65625 12.167969 21.902344 12.800781 C 21.566406 13.082031 20.777344 13.539062 20.152344 13.816406 C 19.59375 14.0625 19.425781 14.171875 19.085938 14.5 C 19 14.578125 18.929688 14.640625 18.925781 14.632812 C 18.910156 14.617188 18.945312 14.234375 18.980469 14.070312 C 19.03125 13.832031 19.109375 13.601562 19.234375 13.347656 C 19.414062 12.980469 19.617188 12.695312 19.925781 12.386719 C 20.21875 12.089844 20.464844 11.898438 20.925781 11.617188 C 21.640625 11.179688 22.089844 10.835938 22.375 10.527344 C 22.574219 10.304688 22.675781 10.15625 22.851562 9.824219 C 22.894531 9.746094 22.960938 9.636719 23 9.578125 C 23.042969 9.519531 23.078125 9.464844 23.082031 9.457031 C 23.09375 9.425781 22.375 9.003906 21.890625 8.757812 C 21.644531 8.632812 21.289062 8.460938 21.273438 8.460938 C 21.273438 8.460938 21.269531 8.621094 21.269531 8.8125 C 21.269531 9.164062 21.253906 9.351562 21.207031 9.546875 C 21.085938 10.035156 20.90625 10.351562 20.609375 10.597656 C 20.542969 10.652344 20.464844 10.714844 20.4375 10.738281 C 20.363281 10.804688 20.058594 11.027344 19.828125 11.191406 C 19.398438 11.488281 19.246094 11.621094 19.140625 11.796875 C 19.113281 11.84375 19.085938 11.882812 19.078125 11.886719 C 19.0625 11.886719 19.050781 11.65625 19.058594 11.519531 C 19.101562 10.886719 19.421875 10.296875 19.984375 9.828125 C 20.03125 9.789062 20.136719 9.707031 20.214844 9.648438 C 20.40625 9.503906 20.484375 9.433594 20.625 9.285156 C 20.816406 9.078125 20.988281 8.824219 21.101562 8.574219 C 21.175781 8.410156 21.179688 8.417969 20.957031 8.328125 C 20.148438 7.992188 19.277344 7.730469 18.464844 7.574219 C 18.328125 7.546875 18.203125 7.527344 18.1875 7.527344 C 18.164062 7.527344 18.160156 7.519531 18.171875 7.414062 C 18.175781 7.355469 18.183594 7.296875 18.1875 7.285156 C 18.1875 7.277344 18.199219 7.179688 18.210938 7.070312 C 18.222656 6.964844 18.238281 6.835938 18.242188 6.785156 C 18.25 6.734375 18.257812 6.65625 18.261719 6.609375 C 18.269531 6.566406 18.273438 6.523438 18.277344 6.511719 C 18.285156 6.492188 18.347656 6.492188 18.445312 6.515625 Z M 16.558594 12.171875 C 16.710938 12.40625 16.890625 12.574219 17.089844 12.667969 C 17.363281 12.796875 17.632812 12.777344 17.960938 12.613281 L 18.121094 12.53125 L 18.101562 12.570312 C 18.0625 12.652344 17.949219 12.792969 17.855469 12.878906 C 17.757812 12.96875 17.605469 13.058594 17.488281 13.09375 C 17.316406 13.144531 17.105469 13.132812 16.898438 13.0625 C 16.839844 13.039062 16.785156 13.023438 16.785156 13.027344 C 16.78125 13.027344 16.808594 13.078125 16.84375 13.136719 C 17.082031 13.519531 17.480469 13.855469 17.902344 14.023438 C 17.941406 14.039062 17.976562 14.058594 17.976562 14.066406 C 17.976562 14.070312 17.957031 14.109375 17.933594 14.148438 C 17.851562 14.277344 17.625 14.683594 17.492188 14.933594 C 17.160156 15.578125 16.851562 16.347656 16.675781 16.953125 C 16.53125 17.445312 16.425781 18.050781 16.417969 18.382812 C 16.417969 18.488281 16.414062 18.480469 16.398438 18.289062 C 16.351562 17.75 16.246094 17.242188 16.046875 16.644531 C 15.792969 15.863281 15.402344 15.015625 14.957031 14.261719 C 14.890625 14.152344 14.839844 14.058594 14.839844 14.058594 C 14.84375 14.054688 14.898438 14.03125 14.964844 14.003906 C 15.304688 13.863281 15.644531 13.59375 15.871094 13.289062 C 15.964844 13.160156 16.042969 13.039062 16.03125 13.03125 C 16.03125 13.027344 15.972656 13.042969 15.90625 13.0625 C 15.738281 13.121094 15.5625 13.140625 15.425781 13.113281 C 15.222656 13.070312 15.066406 12.988281 14.921875 12.839844 C 14.84375 12.757812 14.703125 12.566406 14.703125 12.539062 C 14.703125 12.53125 14.722656 12.539062 14.746094 12.554688 C 14.824219 12.605469 15 12.683594 15.109375 12.714844 C 15.265625 12.761719 15.480469 12.757812 15.628906 12.710938 C 15.773438 12.660156 15.882812 12.59375 16.019531 12.464844 C 16.148438 12.34375 16.269531 12.179688 16.355469 12.011719 L 16.414062 11.902344 L 16.449219 11.984375 C 16.472656 12.027344 16.519531 12.109375 16.558594 12.171875 Z M 8.628906 12.550781 C 8.71875 12.59375 8.785156 12.65625 9.101562 12.992188 C 9.292969 13.199219 9.460938 13.355469 9.652344 13.5 C 10.28125 13.972656 11.027344 14.3125 11.960938 14.558594 C 12.542969 14.710938 12.875 14.832031 13.246094 15.019531 C 14.308594 15.5625 14.996094 16.394531 15.28125 17.480469 C 15.363281 17.792969 15.429688 18.160156 15.476562 18.5625 C 15.488281 18.648438 15.496094 18.863281 15.496094 19.089844 C 15.492188 19.503906 15.480469 19.609375 15.417969 19.75 C 15.351562 19.898438 15.140625 20.078125 14.953125 20.144531 C 14.828125 20.1875 14.625 20.191406 14.492188 20.15625 C 14.375 20.121094 14.1875 20.03125 14.039062 19.941406 C 13.660156 19.703125 13.21875 19.558594 12.613281 19.464844 C 12.230469 19.40625 12.027344 19.394531 11.285156 19.386719 C 10.882812 19.378906 10.511719 19.367188 10.453125 19.359375 C 9.457031 19.21875 8.730469 18.785156 8.246094 18.039062 C 8.0625 17.761719 7.878906 17.316406 7.792969 16.957031 C 7.714844 16.621094 7.605469 15.625 7.628906 15.46875 C 7.632812 15.441406 7.644531 15.261719 7.65625 15.066406 C 7.730469 13.785156 7.882812 12.960938 8.085938 12.691406 C 8.121094 12.644531 8.242188 12.5625 8.324219 12.535156 C 8.417969 12.5 8.539062 12.507812 8.628906 12.550781 Z M 24.46875 12.542969 C 24.582031 12.589844 24.667969 12.65625 24.71875 12.734375 C 24.894531 13 25.046875 13.851562 25.109375 14.941406 C 25.117188 15.070312 25.128906 15.257812 25.136719 15.351562 C 25.160156 15.609375 25.125 16.058594 25.042969 16.625 C 24.957031 17.214844 24.757812 17.71875 24.441406 18.171875 C 24.320312 18.339844 24.003906 18.664062 23.847656 18.777344 C 23.441406 19.066406 23.003906 19.246094 22.492188 19.332031 C 22.226562 19.375 22.050781 19.386719 21.523438 19.386719 C 20.84375 19.386719 20.507812 19.40625 20.039062 19.488281 C 19.496094 19.578125 19.105469 19.714844 18.71875 19.949219 C 18.402344 20.144531 18.1875 20.207031 17.960938 20.175781 C 17.78125 20.148438 17.632812 20.070312 17.480469 19.917969 C 17.308594 19.746094 17.277344 19.621094 17.277344 19.085938 C 17.28125 18.679688 17.292969 18.507812 17.363281 18.082031 C 17.457031 17.519531 17.570312 17.144531 17.757812 16.757812 C 18.207031 15.832031 19.074219 15.117188 20.210938 14.734375 C 20.316406 14.695312 20.535156 14.632812 20.691406 14.59375 C 21.078125 14.492188 21.214844 14.449219 21.476562 14.359375 C 22.144531 14.121094 22.703125 13.828125 23.191406 13.445312 C 23.328125 13.339844 23.621094 13.054688 23.910156 12.746094 C 24.082031 12.5625 24.167969 12.511719 24.308594 12.511719 C 24.371094 12.511719 24.421875 12.523438 24.46875 12.542969 Z M 6.339844 15.515625 C 6.550781 16.492188 6.847656 17.410156 7.132812 17.953125 C 7.296875 18.265625 7.398438 18.410156 7.664062 18.710938 C 8.042969 19.140625 8.292969 19.453125 8.421875 19.667969 C 8.660156 20.066406 8.753906 20.449219 8.738281 20.941406 C 8.714844 21.558594 8.582031 21.972656 8.285156 22.359375 C 8.097656 22.597656 7.777344 22.851562 7.5 22.988281 C 7.339844 23.0625 7.324219 23.066406 7.351562 23 C 7.363281 22.972656 7.371094 22.9375 7.371094 22.917969 C 7.371094 22.902344 7.382812 22.863281 7.390625 22.839844 C 7.417969 22.769531 7.445312 22.589844 7.476562 22.300781 C 7.496094 22.136719 7.496094 21.65625 7.476562 21.46875 C 7.464844 21.339844 7.445312 21.179688 7.425781 21.035156 C 7.417969 20.992188 7.410156 20.929688 7.40625 20.894531 C 7.402344 20.863281 7.390625 20.792969 7.378906 20.742188 C 7.367188 20.691406 7.351562 20.601562 7.339844 20.542969 C 7.328125 20.484375 7.3125 20.410156 7.300781 20.382812 C 7.289062 20.324219 7.257812 20.203125 7.238281 20.105469 C 7.230469 20.074219 7.21875 20.019531 7.207031 19.988281 C 7.195312 19.953125 7.175781 19.882812 7.160156 19.828125 C 7.140625 19.769531 7.117188 19.691406 7.105469 19.652344 C 7.09375 19.613281 7.066406 19.523438 7.046875 19.457031 C 7.027344 19.390625 7.003906 19.324219 6.996094 19.304688 C 6.964844 19.226562 6.902344 19.050781 6.886719 18.992188 C 6.875 18.953125 6.859375 18.902344 6.847656 18.878906 C 6.839844 18.851562 6.8125 18.785156 6.792969 18.730469 C 6.773438 18.675781 6.746094 18.597656 6.734375 18.5625 C 6.695312 18.460938 6.667969 18.371094 6.648438 18.296875 C 6.636719 18.257812 6.617188 18.1875 6.601562 18.136719 C 6.585938 18.082031 6.566406 18.011719 6.558594 17.972656 C 6.550781 17.9375 6.539062 17.882812 6.527344 17.855469 C 6.507812 17.800781 6.480469 17.675781 6.453125 17.535156 C 6.445312 17.488281 6.433594 17.425781 6.425781 17.394531 C 6.410156 17.328125 6.394531 17.242188 6.375 17.097656 C 6.367188 17.050781 6.355469 16.972656 6.347656 16.925781 C 6.308594 16.671875 6.28125 16.238281 6.273438 15.84375 C 6.265625 15.484375 6.273438 15.238281 6.289062 15.289062 C 6.292969 15.292969 6.3125 15.398438 6.339844 15.515625 Z M 26.492188 16.191406 C 26.476562 16.503906 26.476562 16.492188 26.449219 16.75 C 26.414062 17.027344 26.398438 17.148438 26.367188 17.304688 C 26.355469 17.355469 26.339844 17.4375 26.332031 17.480469 C 26.265625 17.847656 26.121094 18.355469 26.003906 18.636719 C 25.976562 18.699219 25.941406 18.789062 25.925781 18.835938 C 25.90625 18.886719 25.878906 18.960938 25.859375 19.011719 C 25.839844 19.058594 25.816406 19.132812 25.800781 19.171875 C 25.789062 19.210938 25.769531 19.265625 25.757812 19.292969 C 25.746094 19.316406 25.71875 19.390625 25.699219 19.457031 C 25.679688 19.523438 25.652344 19.613281 25.640625 19.652344 C 25.628906 19.691406 25.605469 19.769531 25.589844 19.828125 C 25.574219 19.882812 25.550781 19.953125 25.539062 19.988281 C 25.53125 20.019531 25.515625 20.074219 25.507812 20.105469 C 25.488281 20.203125 25.460938 20.324219 25.445312 20.382812 C 25.4375 20.410156 25.421875 20.484375 25.410156 20.542969 C 25.398438 20.601562 25.378906 20.691406 25.367188 20.742188 C 25.359375 20.792969 25.347656 20.863281 25.339844 20.894531 C 25.335938 20.929688 25.328125 20.992188 25.320312 21.035156 C 25.242188 21.605469 25.234375 22.058594 25.296875 22.519531 C 25.316406 22.695312 25.335938 22.789062 25.355469 22.839844 C 25.367188 22.863281 25.375 22.902344 25.375 22.921875 C 25.375 22.941406 25.382812 22.976562 25.394531 23.003906 C 25.40625 23.03125 25.414062 23.054688 25.410156 23.058594 C 25.40625 23.0625 25.355469 23.058594 25.292969 23.050781 C 25.207031 23.039062 25.175781 23.03125 25.117188 22.988281 C 24.90625 22.84375 24.613281 22.574219 24.449219 22.375 C 24.101562 21.957031 23.933594 21.535156 23.933594 21.082031 C 23.9375 20.78125 24 20.53125 24.144531 20.234375 C 24.253906 20.019531 24.382812 19.835938 24.707031 19.429688 C 25.042969 19.011719 25.210938 18.785156 25.359375 18.558594 C 25.863281 17.800781 26.222656 16.871094 26.433594 15.789062 C 26.457031 15.660156 26.484375 15.53125 26.488281 15.5 C 26.507812 15.414062 26.507812 15.875 26.492188 16.191406 Z M 20.386719 20.988281 C 20.710938 21.019531 20.75 21.023438 20.855469 21.046875 L 20.933594 21.058594 L 20.921875 21.121094 C 20.902344 21.261719 20.792969 21.507812 20.6875 21.652344 C 20.65625 21.695312 20.578125 21.777344 20.515625 21.832031 C 20.339844 21.980469 20.253906 22.105469 20.199219 22.304688 C 20.167969 22.40625 20.167969 22.433594 20.167969 22.84375 C 20.171875 23.320312 20.164062 23.375 20.089844 23.496094 C 19.980469 23.660156 19.671875 23.765625 19.332031 23.753906 C 19.195312 23.75 19.171875 23.746094 19.089844 23.707031 C 18.964844 23.648438 18.863281 23.546875 18.71875 23.332031 C 18.570312 23.113281 18.453125 22.988281 18.335938 22.929688 C 18.078125 22.804688 17.773438 22.855469 17.609375 23.058594 C 17.523438 23.160156 17.484375 23.265625 17.4375 23.503906 C 17.386719 23.777344 17.347656 23.878906 17.261719 23.964844 C 17.15625 24.070312 16.953125 24.125 16.695312 24.113281 C 16.554688 24.109375 16.523438 24.105469 16.464844 24.078125 C 16.359375 24.023438 16.332031 23.964844 16.292969 23.714844 C 16.253906 23.449219 16.210938 23.332031 16.121094 23.238281 C 16.015625 23.125 15.878906 23.082031 15.675781 23.09375 C 15.480469 23.105469 15.363281 23.152344 15.246094 23.257812 C 15.128906 23.367188 15.066406 23.492188 14.988281 23.777344 C 14.90625 24.066406 14.828125 24.175781 14.683594 24.21875 C 14.609375 24.242188 14.378906 24.246094 14.25 24.222656 C 13.957031 24.179688 13.78125 24.054688 13.703125 23.839844 C 13.675781 23.769531 13.671875 23.738281 13.671875 23.402344 C 13.671875 23.09375 13.667969 23.03125 13.648438 22.96875 C 13.59375 22.800781 13.515625 22.71875 13.394531 22.707031 C 13.171875 22.679688 12.8125 22.511719 12.695312 22.382812 C 12.632812 22.3125 12.511719 22.101562 12.480469 22 C 12.449219 21.902344 12.390625 21.796875 12.308594 21.695312 C 12.210938 21.578125 12.136719 21.433594 12.089844 21.28125 C 12.046875 21.140625 12.046875 21.113281 12.085938 21.105469 C 12.183594 21.082031 12.628906 21.039062 12.867188 21.019531 C 13.242188 21 13.828125 21.015625 14.066406 21.054688 C 14.105469 21.0625 14.179688 21.074219 14.230469 21.082031 C 14.488281 21.125 14.878906 21.234375 15.03125 21.304688 C 15.050781 21.3125 15.113281 21.34375 15.167969 21.367188 C 15.289062 21.417969 15.335938 21.445312 15.609375 21.621094 C 15.648438 21.644531 15.699219 21.671875 15.714844 21.679688 C 15.734375 21.683594 15.765625 21.699219 15.789062 21.714844 C 15.855469 21.753906 16.066406 21.820312 16.179688 21.835938 C 16.347656 21.859375 16.582031 21.851562 16.714844 21.808594 C 16.875 21.761719 17.035156 21.679688 17.140625 21.585938 C 17.296875 21.449219 17.867188 21.222656 18.316406 21.117188 C 18.527344 21.066406 18.574219 21.058594 18.667969 21.042969 C 18.722656 21.035156 18.800781 21.023438 18.84375 21.015625 C 18.9375 21 19.179688 20.976562 19.375 20.96875 C 19.457031 20.960938 19.53125 20.957031 19.53125 20.953125 C 19.546875 20.941406 20.136719 20.964844 20.386719 20.988281 Z M 21.691406 21.222656 C 21.722656 21.234375 21.792969 21.253906 21.84375 21.269531 C 22.046875 21.332031 22.125 21.355469 22.1875 21.378906 C 22.226562 21.390625 22.277344 21.40625 22.300781 21.414062 C 22.484375 21.46875 22.53125 21.503906 22.546875 21.585938 C 22.554688 21.605469 22.589844 21.691406 22.628906 21.773438 L 22.703125 21.921875 L 22.628906 22.042969 C 22.445312 22.324219 22.15625 22.683594 21.902344 22.945312 C 21.828125 23.023438 21.769531 23.09375 21.773438 23.097656 C 21.800781 23.125 22.472656 22.488281 22.6875 22.222656 C 22.742188 22.15625 22.792969 22.101562 22.796875 22.097656 C 22.804688 22.097656 22.820312 22.117188 22.832031 22.140625 C 22.847656 22.164062 22.875 22.210938 22.898438 22.246094 C 22.921875 22.28125 22.957031 22.332031 22.980469 22.367188 C 23.078125 22.511719 23.171875 22.636719 23.265625 22.734375 C 23.296875 22.765625 23.34375 22.816406 23.371094 22.847656 C 23.4375 22.914062 23.664062 23.121094 23.71875 23.164062 C 23.757812 23.1875 23.757812 23.195312 23.742188 23.222656 C 23.710938 23.285156 23.492188 23.519531 23.40625 23.59375 C 23.300781 23.675781 23.011719 23.835938 22.871094 23.882812 C 22.816406 23.902344 22.691406 23.933594 22.59375 23.949219 C 22.496094 23.96875 22.386719 23.992188 22.347656 23.996094 C 22.3125 24.003906 22.253906 24.015625 22.222656 24.023438 C 22.140625 24.039062 21.992188 24.085938 21.90625 24.125 C 21.867188 24.144531 21.828125 24.15625 21.820312 24.15625 C 21.789062 24.15625 21.402344 24.359375 21.335938 24.40625 C 21.3125 24.425781 21.289062 24.4375 21.28125 24.4375 C 21.273438 24.4375 21.242188 24.457031 21.210938 24.480469 C 21.175781 24.503906 21.117188 24.546875 21.078125 24.574219 C 20.945312 24.667969 20.75 24.816406 20.640625 24.914062 L 20.566406 24.980469 L 20.578125 24.933594 C 20.597656 24.847656 20.699219 24.554688 20.761719 24.402344 C 20.859375 24.171875 21.035156 23.839844 21.164062 23.644531 C 21.214844 23.570312 21.160156 23.613281 21.074219 23.71875 C 20.738281 24.144531 20.457031 24.675781 20.320312 25.148438 C 20.292969 25.242188 20.28125 25.257812 20.171875 25.375 C 20.105469 25.445312 20.035156 25.527344 20.015625 25.5625 C 19.890625 25.78125 19.816406 25.878906 19.683594 26.011719 C 19.605469 26.089844 19.589844 26.101562 19.425781 26.207031 C 19.324219 26.277344 19.089844 26.398438 18.988281 26.4375 C 18.894531 26.472656 18.722656 26.53125 18.628906 26.558594 C 18.511719 26.597656 18.246094 26.660156 18.113281 26.683594 C 17.550781 26.78125 17.363281 26.792969 16.441406 26.800781 C 15.523438 26.808594 15.125 26.789062 14.648438 26.710938 C 14.390625 26.667969 14.363281 26.660156 14.132812 26.597656 C 13.894531 26.53125 13.847656 26.511719 13.644531 26.433594 C 13.523438 26.386719 13.277344 26.25 13.132812 26.15625 C 12.976562 26.050781 12.746094 25.832031 12.65625 25.699219 C 12.625 25.652344 12.601562 25.609375 12.601562 25.605469 C 12.601562 25.597656 12.582031 25.566406 12.5625 25.539062 C 12.488281 25.433594 12.4375 25.324219 12.394531 25.171875 C 12.25 24.675781 11.980469 24.160156 11.632812 23.71875 C 11.546875 23.613281 11.492188 23.570312 11.542969 23.644531 C 11.746094 23.949219 11.945312 24.367188 12.0625 24.71875 C 12.152344 24.988281 12.152344 24.980469 12.019531 24.851562 C 11.71875 24.558594 11.511719 24.402344 11.238281 24.257812 C 11.078125 24.171875 11.046875 24.15625 11.03125 24.15625 C 11.023438 24.15625 10.980469 24.144531 10.9375 24.125 C 10.855469 24.089844 10.652344 24.039062 10.597656 24.039062 C 10.542969 24.039062 10.308594 23.996094 10.160156 23.957031 C 9.882812 23.886719 9.726562 23.832031 9.464844 23.699219 C 9.296875 23.617188 9.152344 23.515625 8.980469 23.355469 L 8.894531 23.277344 L 8.929688 23.242188 C 8.945312 23.222656 8.988281 23.1875 9.023438 23.164062 C 9.089844 23.117188 9.292969 22.9375 9.375 22.847656 C 9.402344 22.816406 9.453125 22.765625 9.480469 22.734375 C 9.574219 22.636719 9.667969 22.511719 9.765625 22.367188 C 9.789062 22.332031 9.824219 22.28125 9.847656 22.246094 C 9.914062 22.144531 9.996094 22.015625 10.007812 21.984375 C 10.015625 21.964844 10.023438 21.953125 10.03125 21.953125 C 10.035156 21.953125 10.085938 22.007812 10.140625 22.074219 C 10.195312 22.144531 10.296875 22.261719 10.363281 22.339844 C 10.503906 22.496094 10.820312 22.808594 10.828125 22.800781 C 10.832031 22.796875 10.773438 22.722656 10.703125 22.636719 C 10.464844 22.355469 10.097656 21.855469 10.097656 21.816406 C 10.097656 21.808594 10.117188 21.773438 10.136719 21.738281 C 10.152344 21.707031 10.179688 21.65625 10.1875 21.625 C 10.195312 21.597656 10.210938 21.566406 10.21875 21.5625 C 10.246094 21.550781 10.359375 21.511719 10.4375 21.488281 C 10.476562 21.476562 10.535156 21.460938 10.570312 21.449219 C 10.609375 21.4375 10.683594 21.417969 10.738281 21.402344 C 10.792969 21.386719 10.878906 21.363281 10.929688 21.347656 C 10.984375 21.335938 11.0625 21.3125 11.109375 21.300781 C 11.160156 21.289062 11.234375 21.273438 11.277344 21.261719 C 11.429688 21.222656 11.453125 21.222656 11.460938 21.253906 C 11.46875 21.269531 11.5 21.332031 11.539062 21.390625 C 11.675781 21.621094 11.894531 21.84375 12.097656 21.972656 C 12.144531 22 12.183594 22.042969 12.234375 22.117188 C 12.414062 22.386719 12.683594 22.605469 12.933594 22.6875 C 13.074219 22.730469 13.253906 22.777344 13.339844 22.796875 C 13.449219 22.816406 13.464844 22.828125 13.503906 22.910156 C 13.53125 22.976562 13.539062 23.011719 13.542969 23.132812 C 13.546875 23.214844 13.542969 23.335938 13.53125 23.402344 C 13.480469 23.785156 13.539062 24.023438 13.742188 24.210938 C 13.882812 24.34375 14.078125 24.421875 14.363281 24.460938 C 14.691406 24.503906 14.882812 24.453125 15.042969 24.277344 C 15.125 24.183594 15.175781 24.089844 15.253906 23.871094 C 15.390625 23.496094 15.457031 23.429688 15.691406 23.429688 C 15.867188 23.429688 15.886719 23.464844 15.914062 23.75 C 15.933594 23.960938 15.949219 24.03125 15.992188 24.136719 C 16.125 24.457031 16.460938 24.601562 16.972656 24.554688 C 17.1875 24.539062 17.34375 24.492188 17.480469 24.402344 C 17.707031 24.257812 17.8125 24.058594 17.863281 23.667969 C 17.890625 23.453125 17.917969 23.339844 17.949219 23.3125 C 17.996094 23.261719 18.113281 23.253906 18.191406 23.296875 C 18.234375 23.320312 18.328125 23.417969 18.4375 23.5625 C 18.71875 23.929688 18.945312 24.0625 19.296875 24.066406 C 19.464844 24.066406 19.523438 24.058594 19.699219 24.015625 C 20.089844 23.917969 20.308594 23.730469 20.378906 23.433594 C 20.40625 23.320312 20.402344 23.160156 20.375 22.863281 C 20.355469 22.632812 20.355469 22.609375 20.375 22.507812 C 20.386719 22.449219 20.414062 22.367188 20.433594 22.328125 C 20.484375 22.222656 20.601562 22.109375 20.714844 22.058594 C 21.039062 21.90625 21.3125 21.632812 21.5 21.273438 C 21.550781 21.183594 21.550781 21.183594 21.691406 21.222656 Z M 21.691406 21.222656 "/>
<path style=" stroke:none;fill-rule:nonzero;fill:rgb(0%,0%,0%);fill-opacity:1;" d="M 11.1875 8.652344 C 10.855469 8.824219 10.640625 8.945312 10.339844 9.128906 C 10.097656 9.277344 9.757812 9.5 9.75 9.515625 C 9.742188 9.523438 9.765625 9.566406 9.796875 9.613281 C 9.832031 9.660156 9.902344 9.785156 9.957031 9.890625 C 10.148438 10.246094 10.265625 10.402344 10.535156 10.660156 L 10.632812 10.753906 L 10.667969 10.667969 C 10.847656 10.234375 11.121094 9.863281 11.480469 9.558594 L 11.550781 9.5 L 11.527344 9.324219 C 11.511719 9.195312 11.503906 9.070312 11.503906 8.828125 C 11.503906 8.648438 11.5 8.503906 11.492188 8.503906 C 11.488281 8.503906 11.351562 8.570312 11.1875 8.652344 Z M 11.1875 8.652344 "/>
<path style=" stroke:none;fill-rule:nonzero;fill:rgb(0%,0%,0%);fill-opacity:1;" d="M 8.570312 13.210938 C 8.445312 13.265625 8.382812 13.355469 8.351562 13.527344 C 8.335938 13.582031 8.320312 13.671875 8.308594 13.722656 C 8.300781 13.773438 8.285156 13.851562 8.277344 13.890625 C 8.269531 13.929688 8.257812 13.996094 8.25 14.039062 C 8.234375 14.105469 8.226562 14.167969 8.195312 14.375 C 8.1875 14.425781 8.175781 14.507812 8.171875 14.5625 C 8.152344 14.667969 8.125 14.933594 8.105469 15.167969 C 8.085938 15.332031 8.082031 15.972656 8.09375 16.148438 C 8.121094 16.484375 8.175781 16.828125 8.246094 17.046875 C 8.257812 17.078125 8.273438 17.136719 8.285156 17.171875 C 8.351562 17.417969 8.554688 17.796875 8.734375 18.007812 C 8.921875 18.222656 9 18.296875 9.203125 18.429688 C 9.230469 18.449219 9.277344 18.484375 9.308594 18.503906 C 9.367188 18.542969 9.605469 18.664062 9.628906 18.664062 C 9.636719 18.664062 9.664062 18.675781 9.6875 18.6875 C 9.714844 18.703125 9.769531 18.722656 9.808594 18.734375 C 9.847656 18.746094 9.902344 18.765625 9.933594 18.777344 C 9.960938 18.785156 10 18.796875 10.015625 18.796875 C 10.035156 18.796875 10.058594 18.804688 10.074219 18.808594 C 10.097656 18.824219 10.214844 18.847656 10.480469 18.894531 C 10.683594 18.933594 11.121094 18.957031 11.628906 18.957031 C 12.109375 18.960938 12.3125 18.96875 12.507812 18.996094 C 12.972656 19.0625 13.332031 19.15625 13.671875 19.300781 C 13.761719 19.339844 14.066406 19.5 14.125 19.535156 C 14.246094 19.617188 14.308594 19.660156 14.375 19.714844 C 14.492188 19.8125 14.628906 19.835938 14.789062 19.78125 C 14.921875 19.734375 15.003906 19.652344 15.042969 19.527344 C 15.078125 19.40625 15.058594 18.675781 15.007812 18.308594 C 14.960938 17.953125 14.9375 17.851562 14.839844 17.511719 C 14.78125 17.316406 14.632812 16.976562 14.5625 16.878906 C 14.546875 16.855469 14.523438 16.816406 14.511719 16.792969 C 14.5 16.765625 14.46875 16.71875 14.449219 16.691406 C 14.425781 16.660156 14.394531 16.617188 14.378906 16.597656 C 14.28125 16.453125 14.242188 16.40625 14.089844 16.257812 C 13.898438 16.066406 13.804688 15.984375 13.726562 15.933594 C 13.695312 15.914062 13.664062 15.890625 13.652344 15.878906 C 13.644531 15.863281 13.609375 15.84375 13.582031 15.828125 C 13.554688 15.8125 13.503906 15.78125 13.472656 15.753906 C 13.4375 15.730469 13.40625 15.707031 13.398438 15.707031 C 13.390625 15.707031 13.363281 15.695312 13.339844 15.679688 C 13.320312 15.660156 13.269531 15.632812 13.234375 15.613281 C 13.199219 15.59375 13.148438 15.570312 13.125 15.558594 C 13.105469 15.546875 13.0625 15.523438 13.03125 15.507812 C 13 15.496094 12.964844 15.476562 12.949219 15.46875 C 12.9375 15.460938 12.875 15.433594 12.8125 15.40625 C 12.75 15.378906 12.667969 15.34375 12.628906 15.328125 C 12.589844 15.308594 12.53125 15.285156 12.5 15.277344 C 12.472656 15.265625 12.40625 15.242188 12.355469 15.21875 C 12.304688 15.199219 12.234375 15.175781 12.203125 15.164062 C 12.167969 15.152344 12.128906 15.140625 12.109375 15.132812 C 12.046875 15.105469 11.777344 15.019531 11.363281 14.890625 C 11.308594 14.875 11.203125 14.839844 11.128906 14.816406 C 11.058594 14.792969 10.980469 14.765625 10.957031 14.757812 C 10.9375 14.753906 10.871094 14.730469 10.8125 14.707031 C 10.753906 14.683594 10.679688 14.652344 10.644531 14.640625 C 10.515625 14.589844 10.195312 14.433594 10.097656 14.375 C 10.074219 14.359375 10.007812 14.324219 9.953125 14.289062 C 9.65625 14.117188 9.304688 13.8125 9.175781 13.617188 C 9.144531 13.566406 9.089844 13.476562 9.0625 13.414062 C 9.003906 13.300781 8.953125 13.242188 8.855469 13.203125 C 8.789062 13.171875 8.640625 13.175781 8.570312 13.210938 Z M 8.992188 14.496094 C 9.042969 14.5625 9.410156 14.820312 9.648438 14.960938 C 9.703125 14.992188 9.78125 15.039062 9.824219 15.0625 C 9.863281 15.085938 9.902344 15.105469 9.90625 15.105469 C 9.910156 15.105469 9.996094 15.144531 10.09375 15.195312 C 10.191406 15.242188 10.277344 15.28125 10.289062 15.28125 C 10.292969 15.28125 10.328125 15.296875 10.367188 15.3125 C 10.402344 15.332031 10.4375 15.347656 10.449219 15.347656 C 10.457031 15.347656 10.484375 15.355469 10.503906 15.367188 C 10.546875 15.390625 10.601562 15.410156 10.84375 15.492188 C 10.996094 15.542969 11.136719 15.589844 11.269531 15.628906 C 11.367188 15.65625 11.488281 15.695312 11.570312 15.722656 C 11.59375 15.730469 11.636719 15.746094 11.667969 15.753906 C 11.742188 15.777344 11.878906 15.824219 11.96875 15.855469 C 12.234375 15.953125 12.257812 15.964844 12.441406 16.042969 C 12.578125 16.101562 12.867188 16.242188 12.90625 16.269531 C 12.925781 16.285156 12.984375 16.320312 13.039062 16.351562 C 13.414062 16.570312 13.753906 16.910156 13.9375 17.253906 C 13.953125 17.28125 13.972656 17.316406 13.980469 17.332031 C 14.011719 17.386719 14.0625 17.507812 14.097656 17.605469 C 14.117188 17.660156 14.140625 17.730469 14.152344 17.753906 C 14.167969 17.796875 14.183594 17.855469 14.230469 18.066406 C 14.253906 18.171875 14.265625 18.222656 14.277344 18.335938 C 14.296875 18.46875 14.328125 18.789062 14.320312 18.796875 C 14.320312 18.796875 14.25 18.765625 14.167969 18.726562 C 14 18.640625 13.847656 18.574219 13.757812 18.546875 C 13.726562 18.539062 13.664062 18.519531 13.625 18.503906 C 13.433594 18.4375 13.109375 18.347656 12.960938 18.328125 C 12.59375 18.269531 12.550781 18.265625 12.289062 18.242188 C 12.144531 18.230469 11.859375 18.222656 11.570312 18.222656 C 10.6875 18.21875 10.238281 18.148438 9.808594 17.9375 C 9.332031 17.703125 9.035156 17.28125 8.898438 16.652344 C 8.855469 16.46875 8.847656 16.40625 8.828125 16.136719 C 8.800781 15.777344 8.808594 15.488281 8.863281 14.933594 C 8.898438 14.585938 8.910156 14.46875 8.921875 14.453125 C 8.929688 14.4375 8.964844 14.453125 8.992188 14.496094 Z M 8.992188 14.496094 "/>
<path style=" stroke:none;fill-rule:nonzero;fill:rgb(0%,0%,0%);fill-opacity:1;" d="M 23.914062 13.203125 C 23.820312 13.242188 23.765625 13.300781 23.710938 13.414062 C 23.683594 13.476562 23.632812 13.566406 23.597656 13.617188 C 23.46875 13.8125 23.117188 14.117188 22.820312 14.289062 C 22.765625 14.324219 22.699219 14.359375 22.675781 14.375 C 22.578125 14.433594 22.257812 14.589844 22.128906 14.640625 C 22.09375 14.652344 22.019531 14.683594 21.960938 14.707031 C 21.902344 14.730469 21.839844 14.753906 21.816406 14.757812 C 21.792969 14.765625 21.714844 14.792969 21.644531 14.816406 C 21.570312 14.839844 21.464844 14.875 21.410156 14.890625 C 21.09375 14.988281 20.953125 15.035156 20.8125 15.082031 C 20.742188 15.105469 20.660156 15.132812 20.625 15.144531 C 20.589844 15.152344 20.550781 15.167969 20.53125 15.175781 C 20.496094 15.191406 20.355469 15.246094 20.273438 15.277344 C 20.242188 15.285156 20.1875 15.308594 20.144531 15.328125 C 20.105469 15.34375 20.023438 15.378906 19.960938 15.40625 C 19.898438 15.433594 19.835938 15.460938 19.824219 15.46875 C 19.808594 15.476562 19.773438 15.496094 19.742188 15.507812 C 19.710938 15.523438 19.667969 15.546875 19.648438 15.558594 C 19.625 15.570312 19.578125 15.59375 19.539062 15.613281 C 19.503906 15.632812 19.457031 15.660156 19.433594 15.679688 C 19.410156 15.695312 19.386719 15.707031 19.375 15.707031 C 19.367188 15.707031 19.335938 15.730469 19.300781 15.753906 C 19.269531 15.78125 19.21875 15.8125 19.191406 15.828125 C 19.164062 15.84375 19.128906 15.863281 19.121094 15.878906 C 19.109375 15.890625 19.078125 15.914062 19.046875 15.933594 C 18.972656 15.984375 18.875 16.066406 18.683594 16.257812 C 18.53125 16.40625 18.492188 16.453125 18.394531 16.597656 C 18.378906 16.617188 18.347656 16.660156 18.324219 16.691406 C 18.304688 16.71875 18.273438 16.765625 18.261719 16.792969 C 18.25 16.816406 18.226562 16.855469 18.210938 16.878906 C 18.140625 16.976562 17.992188 17.316406 17.9375 17.511719 C 17.835938 17.851562 17.8125 17.953125 17.765625 18.308594 C 17.714844 18.675781 17.695312 19.40625 17.730469 19.527344 C 17.769531 19.652344 17.851562 19.734375 17.984375 19.78125 C 18.144531 19.835938 18.28125 19.8125 18.398438 19.714844 C 18.464844 19.660156 18.527344 19.617188 18.648438 19.535156 C 18.707031 19.5 19.011719 19.339844 19.101562 19.300781 C 19.445312 19.15625 19.800781 19.0625 20.265625 18.996094 C 20.460938 18.96875 20.664062 18.960938 21.144531 18.957031 C 21.652344 18.957031 22.089844 18.933594 22.296875 18.894531 C 22.558594 18.847656 22.675781 18.824219 22.699219 18.808594 C 22.714844 18.804688 22.738281 18.796875 22.757812 18.796875 C 22.773438 18.796875 22.8125 18.785156 22.839844 18.777344 C 22.871094 18.765625 22.925781 18.746094 22.964844 18.734375 C 23.003906 18.722656 23.058594 18.703125 23.085938 18.6875 C 23.109375 18.675781 23.136719 18.664062 23.144531 18.664062 C 23.167969 18.664062 23.40625 18.542969 23.464844 18.503906 C 23.496094 18.484375 23.542969 18.449219 23.574219 18.429688 C 23.773438 18.296875 23.851562 18.222656 24.039062 18.007812 C 24.21875 17.796875 24.425781 17.417969 24.492188 17.171875 C 24.5 17.136719 24.515625 17.078125 24.527344 17.046875 C 24.597656 16.828125 24.652344 16.484375 24.679688 16.148438 C 24.691406 15.972656 24.6875 15.332031 24.671875 15.167969 C 24.648438 14.933594 24.621094 14.667969 24.605469 14.5625 C 24.597656 14.507812 24.585938 14.425781 24.578125 14.375 C 24.546875 14.167969 24.539062 14.105469 24.523438 14.039062 C 24.515625 13.996094 24.503906 13.929688 24.496094 13.890625 C 24.488281 13.851562 24.472656 13.773438 24.464844 13.722656 C 24.453125 13.671875 24.4375 13.582031 24.425781 13.527344 C 24.390625 13.355469 24.328125 13.265625 24.203125 13.210938 C 24.132812 13.175781 23.980469 13.171875 23.914062 13.203125 Z M 23.871094 14.558594 C 23.957031 15.234375 23.976562 15.730469 23.945312 16.136719 C 23.925781 16.40625 23.917969 16.46875 23.878906 16.652344 C 23.699219 17.46875 23.269531 17.917969 22.480469 18.109375 C 22.148438 18.191406 21.804688 18.222656 21.203125 18.222656 C 20.914062 18.222656 20.628906 18.230469 20.484375 18.242188 C 20.222656 18.265625 20.179688 18.269531 19.8125 18.328125 C 19.652344 18.351562 19.398438 18.421875 19.09375 18.519531 C 18.910156 18.582031 18.789062 18.636719 18.605469 18.726562 C 18.523438 18.765625 18.453125 18.796875 18.453125 18.796875 C 18.445312 18.789062 18.476562 18.46875 18.496094 18.335938 C 18.507812 18.222656 18.519531 18.171875 18.542969 18.066406 C 18.589844 17.855469 18.605469 17.796875 18.621094 17.753906 C 18.632812 17.730469 18.65625 17.660156 18.675781 17.605469 C 18.710938 17.507812 18.761719 17.386719 18.792969 17.332031 C 18.800781 17.316406 18.820312 17.28125 18.835938 17.253906 C 19.019531 16.910156 19.359375 16.570312 19.734375 16.351562 C 19.789062 16.320312 19.847656 16.285156 19.867188 16.269531 C 19.90625 16.242188 20.195312 16.101562 20.332031 16.042969 C 20.515625 15.964844 20.542969 15.953125 20.804688 15.855469 C 20.894531 15.824219 21.03125 15.777344 21.105469 15.753906 C 21.136719 15.746094 21.183594 15.730469 21.203125 15.722656 C 21.285156 15.695312 21.40625 15.65625 21.503906 15.628906 C 21.636719 15.589844 21.777344 15.542969 21.929688 15.492188 C 22.171875 15.410156 22.226562 15.390625 22.269531 15.367188 C 22.289062 15.355469 22.316406 15.347656 22.324219 15.347656 C 22.335938 15.347656 22.371094 15.332031 22.40625 15.3125 C 22.445312 15.296875 22.480469 15.28125 22.488281 15.28125 C 22.496094 15.28125 22.582031 15.242188 22.679688 15.195312 C 22.78125 15.144531 22.863281 15.105469 22.867188 15.105469 C 22.871094 15.105469 22.910156 15.085938 22.949219 15.0625 C 22.992188 15.039062 23.070312 14.992188 23.125 14.960938 C 23.382812 14.8125 23.703125 14.582031 23.796875 14.480469 C 23.820312 14.453125 23.839844 14.441406 23.847656 14.449219 C 23.855469 14.457031 23.863281 14.503906 23.871094 14.558594 Z M 23.871094 14.558594 "/>
</g>
</svg>
